<svg xmlns="http://www.w3.org/2000/svg" xmlns:xlink="http://www.w3.org/1999/xlink" preserveAspectRatio="xMidYMid" width="26.969" height="27" viewBox="0 0 26.969 27">
  <defs>
    <style>
      .cls-1 {
        fill: #d550d0;
        fill-rule: evenodd;
      }
    </style>
  </defs>
  <path d="M26.815,12.319 L22.775,8.589 L22.775,2.479 L18.122,2.479 L18.122,4.293 L13.469,-0.003 L0.122,12.319 C-0.066,12.493 -0.077,12.786 0.098,12.973 C0.273,13.160 0.567,13.171 0.756,12.998 L2.301,11.571 L2.301,27.002 L9.746,27.002 L17.192,27.002 L24.637,27.002 L24.637,11.571 L26.182,12.997 C26.271,13.080 26.385,13.121 26.499,13.121 C26.624,13.121 26.748,13.071 26.839,12.973 C27.014,12.786 27.003,12.493 26.815,12.319 ZM19.053,3.404 L21.845,3.404 L21.845,7.730 L19.053,5.152 L19.053,3.404 ZM10.676,26.077 L10.676,16.331 C10.676,16.092 10.872,15.897 11.112,15.897 L15.825,15.897 C16.065,15.897 16.261,16.092 16.261,16.331 L16.261,26.077 L10.676,26.077 ZM23.706,26.077 L17.191,26.077 L17.191,16.331 C17.191,15.581 16.578,14.972 15.825,14.972 L11.112,14.972 C10.359,14.972 9.746,15.581 9.746,16.331 L9.746,26.077 L3.231,26.077 L3.231,10.712 L13.469,1.259 L20.114,7.395 L22.775,9.852 L22.775,9.852 L23.706,10.711 L23.706,26.077 Z" class="cls-1"/>
</svg>
