<svg xmlns="http://www.w3.org/2000/svg" xmlns:xlink="http://www.w3.org/1999/xlink" preserveAspectRatio="xMidYMid" width="24" height="32" viewBox="0 0 24 32">
  <defs>
    <style>
      .cls-1 {
        fill: #000;
        fill-rule: evenodd;
      }
    </style>
  </defs>
  <path d="M23.874,31.849 C23.782,31.946 23.654,32.000 23.521,32.000 L0.474,32.000 C0.341,32.000 0.213,31.946 0.121,31.849 C0.030,31.753 -0.019,31.625 -0.013,31.492 L1.084,8.583 C1.097,8.324 1.310,8.121 1.572,8.121 L6.237,8.121 L6.237,5.726 C6.237,2.568 8.821,-0.000 11.997,-0.000 C15.174,-0.000 17.758,2.568 17.758,5.726 L17.758,8.121 L22.424,8.121 C22.684,8.121 22.899,8.324 22.911,8.583 L24.009,31.492 C24.015,31.625 23.967,31.753 23.874,31.849 ZM16.782,5.726 C16.782,3.104 14.636,0.969 11.997,0.969 C9.358,0.969 7.212,3.104 7.212,5.726 L7.212,8.121 L16.782,8.121 L16.782,5.726 ZM21.958,9.091 L17.758,9.091 L17.758,10.545 C17.758,10.813 17.540,11.030 17.270,11.030 C17.001,11.030 16.782,10.813 16.782,10.545 L16.782,9.091 L7.212,9.091 L7.212,10.545 C7.212,10.813 6.994,11.030 6.724,11.030 C6.455,11.030 6.237,10.813 6.237,10.545 L6.237,9.091 L2.036,9.091 L0.985,31.030 L23.009,31.030 L21.958,9.091 Z" class="cls-1"/>
</svg>
