<svg xmlns="http://www.w3.org/2000/svg" xmlns:xlink="http://www.w3.org/1999/xlink" preserveAspectRatio="xMidYMid" width="31" height="31" viewBox="0 0 31 31">
  <defs>
    <style>
      .cls-1 {
        fill: #000;
        fill-rule: evenodd;
      }
    </style>
  </defs>
  <path d="M15.500,31.000 C6.953,31.000 -0.000,24.047 -0.000,15.500 C-0.000,6.953 6.953,-0.000 15.500,-0.000 C24.047,-0.000 31.000,6.953 31.000,15.500 C31.000,24.047 24.047,31.000 15.500,31.000 ZM15.500,1.033 C7.523,1.033 1.033,7.523 1.033,15.500 C1.033,23.477 7.523,29.967 15.500,29.967 C23.477,29.967 29.967,23.477 29.967,15.500 C29.967,7.523 23.477,1.033 15.500,1.033 ZM15.500,16.533 L7.233,16.533 C6.948,16.533 6.717,16.302 6.717,16.017 C6.717,15.731 6.948,15.500 7.233,15.500 L14.983,15.500 L14.983,3.617 C14.983,3.331 15.215,3.100 15.500,3.100 C15.785,3.100 16.017,3.331 16.017,3.617 L16.017,16.017 C16.017,16.302 15.785,16.533 15.500,16.533 Z" class="cls-1"/>
</svg>
