<svg xmlns="http://www.w3.org/2000/svg" width="27.62" height="27.62" viewBox="0 0 27.62 27.62">
  <defs>
    <style>
      .cls-1 {
        fill: #fff;
        fill-rule: evenodd;
      }
    </style>
  </defs>
  <path id="close.svg" class="cls-1" d="M1139.26,1559.74a13.809,13.809,0,1,0,4.04,9.76A13.7,13.7,0,0,0,1139.26,1559.74Zm-1.11,18.41a12.23,12.23,0,1,1,0-17.3A12.164,12.164,0,0,1,1138.15,1578.15Zm-2.57-14.73a0.779,0.779,0,0,0-1.11,0l-4.97,4.97-4.97-4.97a0.785,0.785,0,1,0-1.11,1.11l4.97,4.97-4.97,4.97a0.785,0.785,0,0,0,.55,1.34,0.741,0.741,0,0,0,.55-0.23l4.97-4.97,4.98,4.97a0.781,0.781,0,0,0,.55.23,0.741,0.741,0,0,0,.55-0.23,0.779,0.779,0,0,0,0-1.11l-4.96-4.97,4.97-4.97A0.779,0.779,0,0,0,1135.58,1563.42Z" transform="translate(-1115.69 -1555.69)"/>
</svg>
