<svg xmlns="http://www.w3.org/2000/svg" xmlns:xlink="http://www.w3.org/1999/xlink" preserveAspectRatio="xMidYMid" width="82" height="50" viewBox="0 0 82 50">
  <defs>
    <style>
      .cls-1 {
        fill: #000;
        fill-rule: evenodd;
      }
    </style>
  </defs>
  <path d="M81.533,48.169 C80.509,48.843 79.257,49.998 75.381,49.998 C75.304,50.003 5.766,49.986 5.766,49.986 L5.766,49.990 C5.766,49.990 2.054,49.848 0.401,48.206 C-0.181,47.627 0.040,47.404 0.040,47.404 L4.961,47.404 C4.522,46.809 4.255,46.083 4.255,45.290 L4.255,3.590 C4.255,1.609 5.878,-0.005 7.873,-0.005 L74.077,-0.005 C76.073,-0.005 77.696,1.608 77.696,3.590 L77.696,45.290 C77.696,46.066 77.441,46.781 77.020,47.369 L81.894,47.369 C81.894,47.369 82.293,47.413 81.533,48.169 ZM36.308,48.246 L45.624,48.246 L45.624,47.617 L36.308,47.617 L36.308,48.246 ZM75.026,2.419 L6.818,2.419 L6.818,44.464 L75.026,44.464 L75.026,2.419 ZM33.659,21.082 C34.696,21.353 35.535,20.946 36.241,20.241 C36.946,19.535 37.162,18.695 36.891,17.659 C37.393,17.387 37.926,17.166 38.483,17.000 C39.025,17.925 40.002,18.539 41.000,18.539 C41.998,18.539 42.975,17.925 43.517,17.000 C44.074,17.166 44.607,17.387 45.109,17.659 C44.838,18.696 45.054,19.535 45.759,20.241 C46.465,20.946 47.304,21.353 48.341,21.081 C48.613,21.584 48.834,22.117 49.000,22.674 C48.075,23.215 47.461,24.002 47.461,25.000 C47.461,25.997 48.075,26.785 49.000,27.326 C48.834,27.883 48.613,28.416 48.341,28.918 C47.304,28.647 46.465,29.054 45.759,29.759 C45.054,30.465 44.838,31.304 45.109,32.341 C44.607,32.612 44.074,32.833 43.517,33.000 C42.975,32.075 41.998,31.461 41.000,31.461 C40.002,31.461 39.025,32.075 38.483,33.000 C37.926,32.834 37.393,32.612 36.891,32.341 C37.162,31.304 36.946,30.465 36.241,29.759 C35.535,29.054 34.696,28.838 33.659,29.109 C33.387,28.607 33.166,28.073 33.000,27.516 C33.925,26.975 34.539,25.997 34.539,25.000 C34.539,24.002 33.925,23.215 33.000,22.674 C33.166,22.117 33.387,21.583 33.659,21.082 ZM41.000,28.479 C42.921,28.479 44.479,26.921 44.479,25.000 C44.479,23.078 42.921,21.521 41.000,21.521 C39.078,21.521 37.521,23.078 37.521,25.000 C37.521,26.921 39.079,28.479 41.000,28.479 Z" class="cls-1"/>
</svg>
