<svg xmlns="http://www.w3.org/2000/svg" xmlns:xlink="http://www.w3.org/1999/xlink" preserveAspectRatio="xMidYMid" width="29.938" height="50" viewBox="0 0 29.938 50">
  <defs>
    <style>
      .cls-1 {
        fill: #000;
        fill-rule: evenodd;
      }
    </style>
  </defs>
  <path d="M26.099,50.003 L3.841,50.003 C1.711,50.003 -0.009,48.373 -0.009,46.364 L-0.009,3.639 C-0.009,1.628 1.711,-0.004 3.841,-0.004 L26.099,-0.004 C28.224,-0.004 29.947,1.628 29.947,3.639 L29.947,46.364 C29.947,48.373 28.224,50.003 26.099,50.003 ZM14.971,46.408 C16.323,46.408 17.424,45.366 17.424,44.083 C17.424,42.801 16.323,41.762 14.971,41.762 C13.616,41.762 12.514,42.801 12.514,44.083 C12.514,45.366 13.616,46.408 14.971,46.408 ZM20.466,2.208 L9.477,2.208 C9.198,2.208 8.976,2.600 8.976,3.084 C8.976,3.570 9.198,3.963 9.477,3.963 L20.466,3.963 C20.743,3.963 20.967,3.570 20.967,3.084 C20.967,2.600 20.743,2.208 20.466,2.208 ZM27.063,6.143 L2.877,6.143 L2.877,38.446 L27.063,38.446 L27.063,6.143 ZM6.969,20.674 C7.135,20.117 7.356,19.583 7.628,19.082 C8.665,19.353 9.504,18.946 10.210,18.241 C10.915,17.535 11.131,16.696 10.860,15.659 C11.362,15.387 11.895,15.166 12.452,15.000 C12.994,15.925 13.971,16.539 14.969,16.539 C15.967,16.539 16.944,15.925 17.486,15.000 C18.043,15.166 18.576,15.387 19.078,15.659 C18.807,16.696 19.023,17.535 19.728,18.241 C20.434,18.946 21.273,19.353 22.310,19.081 C22.582,19.583 22.802,20.117 22.969,20.674 C22.044,21.215 21.430,22.002 21.430,23.000 C21.430,23.997 22.044,24.785 22.969,25.326 C22.802,25.883 22.582,26.416 22.310,26.918 C21.273,26.647 20.434,27.053 19.728,27.759 C19.023,28.465 18.807,29.304 19.078,30.341 C18.576,30.613 18.043,30.833 17.486,31.000 C16.944,30.075 15.967,29.461 14.969,29.461 C13.971,29.461 12.994,30.075 12.452,31.000 C11.895,30.834 11.362,30.613 10.860,30.341 C11.131,29.304 10.915,28.465 10.210,27.759 C9.504,27.054 8.665,26.838 7.628,27.109 C7.356,26.607 7.135,26.073 6.969,25.516 C7.894,24.975 8.508,23.997 8.508,23.000 C8.508,22.002 7.894,21.215 6.969,20.674 ZM14.969,26.479 C16.890,26.479 18.448,24.921 18.448,23.000 C18.448,21.078 16.890,19.521 14.969,19.521 C13.047,19.521 11.490,21.078 11.490,23.000 C11.490,24.921 13.048,26.479 14.969,26.479 Z" class="cls-1"/>
</svg>
