<svg xmlns="http://www.w3.org/2000/svg" xmlns:xlink="http://www.w3.org/1999/xlink" preserveAspectRatio="xMidYMid" width="37" height="50" viewBox="0 0 37 50">
  <defs>
    <style>
      .cls-1 {
        fill: #000;
        fill-rule: evenodd;
      }
    </style>
  </defs>
  <path d="M33.566,49.996 L3.434,49.996 C1.534,49.996 0.005,48.471 0.005,46.601 L0.005,3.399 C0.005,1.523 1.534,0.004 3.434,0.004 L33.566,0.004 C35.458,0.004 36.998,1.523 36.995,3.399 L36.995,46.601 C36.995,48.474 35.458,49.996 33.566,49.996 ZM18.501,48.723 C19.625,48.723 20.540,47.822 20.540,46.707 C20.540,45.593 19.625,44.691 18.501,44.691 C17.373,44.691 16.462,45.593 16.462,46.707 C16.462,47.822 17.373,48.723 18.501,48.723 ZM33.527,4.083 L3.476,4.083 L3.476,42.925 L33.527,42.925 L33.527,4.083 ZM11.000,22.674 C11.166,22.117 11.387,21.583 11.659,21.082 C12.696,21.353 13.535,20.946 14.241,20.241 C14.946,19.535 15.162,18.695 14.891,17.659 C15.393,17.387 15.926,17.166 16.483,17.000 C17.025,17.925 18.002,18.539 19.000,18.539 C19.998,18.539 20.975,17.925 21.517,17.000 C22.074,17.166 22.607,17.387 23.109,17.659 C22.838,18.696 23.054,19.535 23.759,20.241 C24.465,20.946 25.304,21.353 26.341,21.081 C26.613,21.584 26.833,22.117 27.000,22.674 C26.075,23.215 25.461,24.002 25.461,25.000 C25.461,25.997 26.075,26.785 27.000,27.326 C26.833,27.883 26.613,28.416 26.341,28.918 C25.304,28.647 24.465,29.054 23.759,29.759 C23.054,30.465 22.838,31.304 23.109,32.341 C22.607,32.612 22.074,32.833 21.517,33.000 C20.975,32.075 19.998,31.461 19.000,31.461 C18.002,31.461 17.025,32.075 16.483,33.000 C15.926,32.834 15.393,32.612 14.891,32.341 C15.162,31.304 14.946,30.465 14.241,29.759 C13.535,29.054 12.696,28.838 11.659,29.109 C11.387,28.607 11.166,28.073 11.000,27.516 C11.925,26.975 12.539,25.997 12.539,25.000 C12.539,24.002 11.925,23.215 11.000,22.674 ZM19.000,28.479 C20.921,28.479 22.479,26.921 22.479,25.000 C22.479,23.078 20.921,21.521 19.000,21.521 C17.078,21.521 15.521,23.078 15.521,25.000 C15.521,26.921 17.079,28.479 19.000,28.479 Z" class="cls-1"/>
</svg>
