<svg xmlns="http://www.w3.org/2000/svg" xmlns:xlink="http://www.w3.org/1999/xlink" preserveAspectRatio="xMidYMid" width="28" height="50" viewBox="0 0 28 50">
  <defs>
    <style>
      .cls-1 {
        fill: #000;
        fill-rule: evenodd;
      }
    </style>
  </defs>
  <path d="M26.254,28.235 C26.161,28.235 26.071,28.225 25.982,28.211 L25.982,33.019 C25.982,35.682 23.803,37.849 21.126,37.849 L20.696,37.849 L20.696,49.267 C20.696,49.672 20.366,50.000 19.959,50.000 L6.022,50.000 C5.616,50.000 5.286,49.672 5.286,49.267 L5.286,37.849 L4.856,37.849 C2.178,37.849 -0.000,35.682 -0.000,33.019 L-0.000,17.038 C-0.000,14.374 2.178,12.208 4.856,12.208 L5.286,12.208 L5.286,0.733 C5.286,0.328 5.616,-0.000 6.022,-0.000 L19.959,-0.000 C20.366,-0.000 20.696,0.328 20.696,0.733 L20.696,12.208 L21.126,12.208 C23.803,12.208 25.982,14.374 25.982,17.038 L25.982,21.845 C26.071,21.832 26.161,21.822 26.254,21.822 C27.216,21.822 28.000,22.601 28.000,23.558 L28.000,26.498 C28.000,27.456 27.217,28.235 26.254,28.235 ZM23.307,26.345 L23.307,23.712 L23.307,17.871 C23.307,16.210 21.947,14.858 20.277,14.858 L5.705,14.858 C4.034,14.858 2.675,16.210 2.675,17.871 L2.675,32.185 C2.675,33.847 4.034,35.199 5.705,35.199 L20.277,35.199 C21.947,35.199 23.307,33.847 23.307,32.185 L23.307,26.345 ZM18.000,26.454 C17.896,26.802 17.758,27.135 17.588,27.449 C16.940,27.279 16.415,27.534 15.974,27.974 C15.534,28.415 15.399,28.940 15.568,29.588 C15.254,29.758 14.921,29.896 14.573,30.000 C14.235,29.422 13.624,29.038 13.000,29.038 C12.377,29.038 11.766,29.422 11.427,30.000 C11.079,29.896 10.746,29.758 10.432,29.588 C10.601,28.940 10.466,28.416 10.026,27.975 C9.585,27.534 9.060,27.399 8.412,27.568 C8.242,27.254 8.104,26.921 8.000,26.573 C8.578,26.235 8.962,25.623 8.962,25.000 C8.962,24.377 8.578,23.884 8.000,23.546 C8.104,23.198 8.242,22.865 8.412,22.551 C9.060,22.720 9.585,22.466 10.026,22.026 C10.466,21.584 10.601,21.060 10.432,20.412 C10.746,20.242 11.079,20.104 11.427,20.000 C11.765,20.578 12.377,20.962 13.000,20.962 C13.624,20.962 14.235,20.578 14.573,20.000 C14.921,20.104 15.254,20.242 15.568,20.412 C15.399,21.060 15.534,21.585 15.974,22.026 C16.415,22.466 16.940,22.720 17.588,22.551 C17.758,22.865 17.896,23.198 18.000,23.546 C17.422,23.884 17.038,24.377 17.038,25.000 C17.038,25.623 17.422,26.116 18.000,26.454 ZM13.000,22.825 C11.799,22.825 10.826,23.799 10.826,25.000 C10.826,26.201 11.799,27.174 13.000,27.174 C14.201,27.174 15.174,26.201 15.174,25.000 C15.174,23.799 14.201,22.825 13.000,22.825 Z" class="cls-1"/>
</svg>
