<svg xmlns="http://www.w3.org/2000/svg" xmlns:xlink="http://www.w3.org/1999/xlink" preserveAspectRatio="xMidYMid" width="31" height="50" viewBox="0 0 31 50">
  <defs>
    <style>
      .cls-1 {
        fill: #000;
        fill-rule: evenodd;
      }
    </style>
  </defs>
  <path d="M27.262,49.998 L3.736,49.998 C1.663,49.998 -0.010,48.365 -0.010,46.359 L-0.010,3.646 C-0.010,1.633 1.663,0.001 3.736,0.001 L27.262,0.001 C29.330,0.001 31.010,1.633 31.010,3.646 L31.010,46.359 C31.010,48.367 29.330,49.998 27.262,49.998 ZM15.505,43.782 C20.116,43.782 23.874,40.133 23.874,35.640 C23.874,31.147 20.116,27.512 15.505,27.512 C10.882,27.512 7.125,31.145 7.125,35.640 C7.125,40.135 10.882,43.782 15.505,43.782 ZM28.204,4.324 L2.797,4.324 L2.797,22.812 L28.202,22.812 L28.204,22.812 L28.204,4.324 ZM21.000,14.454 C20.896,14.802 20.758,15.135 20.588,15.449 C19.940,15.279 19.415,15.533 18.974,15.974 C18.534,16.415 18.399,16.940 18.568,17.588 C18.254,17.758 17.921,17.896 17.573,18.000 C17.235,17.422 16.624,17.038 16.000,17.038 C15.377,17.038 14.766,17.422 14.427,18.000 C14.079,17.896 13.746,17.758 13.432,17.588 C13.601,16.940 13.466,16.415 13.026,15.974 C12.585,15.533 12.060,15.399 11.412,15.568 C11.242,15.254 11.104,14.921 11.000,14.573 C11.578,14.235 11.962,13.623 11.962,13.000 C11.962,12.376 11.578,11.884 11.000,11.546 C11.104,11.198 11.242,10.865 11.412,10.551 C12.060,10.720 12.585,10.466 13.026,10.026 C13.466,9.584 13.601,9.060 13.432,8.412 C13.746,8.242 14.079,8.104 14.427,8.000 C14.765,8.578 15.377,8.962 16.000,8.962 C16.624,8.962 17.235,8.578 17.573,8.000 C17.921,8.104 18.254,8.242 18.568,8.412 C18.399,9.060 18.534,9.585 18.974,10.026 C19.415,10.466 19.940,10.720 20.588,10.551 C20.758,10.865 20.896,11.198 21.000,11.546 C20.422,11.884 20.038,12.376 20.038,13.000 C20.038,13.623 20.422,14.116 21.000,14.454 ZM16.000,10.825 C14.799,10.825 13.826,11.799 13.826,13.000 C13.826,14.201 14.799,15.174 16.000,15.174 C17.201,15.174 18.174,14.201 18.174,13.000 C18.174,11.799 17.201,10.825 16.000,10.825 ZM15.502,31.398 C17.871,31.398 19.803,33.267 19.803,35.577 C19.803,37.887 17.871,39.762 15.502,39.762 C13.125,39.762 11.193,37.887 11.193,35.577 C11.193,33.267 13.125,31.398 15.502,31.398 Z" class="cls-1"/>
</svg>
