<svg xmlns="http://www.w3.org/2000/svg" xmlns:xlink="http://www.w3.org/1999/xlink" preserveAspectRatio="xMidYMid" width="31" height="31" viewBox="0 0 31 31">
  <defs>
    <style>
      .cls-1 {
        fill: #000;
        fill-rule: evenodd;
      }
    </style>
  </defs>
  <path d="M29.404,18.944 L26.504,18.944 C26.038,18.944 25.652,19.201 25.474,19.631 C25.296,20.062 25.387,20.515 25.716,20.844 L27.766,22.895 C28.068,23.196 28.233,23.597 28.233,24.024 C28.233,24.450 28.068,24.851 27.766,25.153 L25.152,27.766 C24.550,28.369 23.498,28.370 22.895,27.766 L20.845,25.716 C20.515,25.387 20.062,25.296 19.631,25.475 C19.200,25.653 18.944,26.037 18.944,26.503 L18.944,29.404 C18.944,30.284 18.228,30.999 17.348,30.999 L13.651,30.999 C12.771,30.999 12.056,30.284 12.056,29.404 L12.056,26.503 C12.056,26.037 11.799,25.653 11.368,25.475 C10.937,25.296 10.484,25.387 10.155,25.716 L8.105,27.766 C7.501,28.371 6.450,28.370 5.847,27.766 L3.233,25.153 C2.932,24.851 2.766,24.450 2.766,24.024 C2.766,23.597 2.932,23.196 3.233,22.895 L5.284,20.844 C5.613,20.515 5.703,20.062 5.525,19.631 C5.346,19.201 4.962,18.944 4.496,18.944 L1.596,18.944 C0.716,18.944 -0.000,18.228 -0.000,17.347 L-0.000,13.651 C-0.000,12.771 0.716,12.055 1.596,12.055 L4.496,12.055 C4.962,12.055 5.347,11.798 5.525,11.368 C5.703,10.938 5.613,10.484 5.284,10.154 L3.233,8.104 C2.932,7.803 2.766,7.402 2.766,6.975 C2.766,6.549 2.932,6.148 3.233,5.846 L5.847,3.233 C6.450,2.630 7.501,2.629 8.105,3.233 L10.155,5.283 C10.484,5.612 10.939,5.704 11.368,5.524 C11.799,5.346 12.056,4.962 12.056,4.496 L12.056,1.595 C12.056,0.715 12.771,-0.001 13.651,-0.001 L17.348,-0.001 C18.228,-0.001 18.944,0.715 18.944,1.595 L18.944,4.496 C18.944,4.962 19.201,5.346 19.632,5.524 C20.061,5.704 20.516,5.612 20.845,5.283 L22.895,3.233 C23.499,2.629 24.550,2.630 25.153,3.233 L27.767,5.846 C28.068,6.149 28.234,6.549 28.234,6.975 C28.234,7.402 28.068,7.803 27.767,8.104 L25.716,10.154 C25.387,10.484 25.296,10.938 25.475,11.368 C25.654,11.798 26.038,12.055 26.504,12.055 L29.404,12.055 C30.284,12.055 31.000,12.771 31.000,13.651 L31.000,17.348 C31.000,18.228 30.284,18.944 29.404,18.944 ZM29.852,13.651 C29.852,13.404 29.651,13.204 29.404,13.204 L26.504,13.204 C25.571,13.204 24.771,12.669 24.414,11.808 C24.057,10.946 24.245,10.002 24.904,9.342 L26.955,7.293 C27.130,7.118 27.130,6.834 26.955,6.659 L24.341,4.045 C24.167,3.870 23.883,3.870 23.707,4.045 L21.657,6.095 C20.998,6.754 20.055,6.942 19.192,6.586 C18.331,6.229 17.796,5.428 17.796,4.496 L17.796,1.595 C17.796,1.348 17.595,1.148 17.348,1.148 L13.651,1.148 C13.405,1.148 13.204,1.348 13.204,1.595 L13.204,4.496 C13.204,5.428 12.669,6.229 11.808,6.585 C10.945,6.942 10.001,6.753 9.342,6.094 L7.292,4.044 C7.117,3.869 6.833,3.869 6.659,4.044 L4.045,6.658 C3.870,6.833 3.870,7.117 4.045,7.292 L6.095,9.342 C6.755,10.001 6.943,10.946 6.586,11.807 C6.229,12.668 5.428,13.204 4.496,13.204 L1.596,13.204 C1.349,13.204 1.148,13.404 1.148,13.651 L1.148,17.348 C1.148,17.595 1.349,17.796 1.596,17.796 L4.496,17.796 C5.428,17.796 6.229,18.331 6.586,19.192 C6.943,20.052 6.755,20.998 6.095,21.657 L4.045,23.707 C3.870,23.881 3.870,24.165 4.045,24.340 L6.659,26.954 C6.833,27.128 7.117,27.130 7.292,26.954 L9.342,24.903 C9.781,24.465 10.345,24.235 10.927,24.235 C11.221,24.235 11.519,24.294 11.808,24.414 C12.669,24.770 13.204,25.571 13.204,26.503 L13.204,29.404 C13.204,29.650 13.405,29.852 13.651,29.852 L17.348,29.852 C17.595,29.852 17.796,29.650 17.796,29.404 L17.796,26.503 C17.796,25.571 18.331,24.770 19.192,24.414 C20.053,24.058 20.998,24.245 21.657,24.904 L23.707,26.955 C23.883,27.130 24.167,27.129 24.341,26.955 L26.955,24.341 C27.130,24.166 27.130,23.882 26.955,23.707 L24.904,21.657 C24.245,20.998 24.057,20.053 24.414,19.192 C24.771,18.331 25.571,17.796 26.504,17.796 L29.404,17.796 C29.651,17.796 29.852,17.595 29.852,17.348 L29.852,13.651 ZM15.500,20.666 C12.651,20.666 10.333,18.348 10.333,15.500 C10.333,12.650 12.651,10.333 15.500,10.333 C18.349,10.333 20.667,12.650 20.667,15.500 C20.667,18.348 18.349,20.666 15.500,20.666 ZM15.500,11.481 C13.285,11.481 11.481,13.284 11.481,15.500 C11.481,17.715 13.285,19.518 15.500,19.518 C17.715,19.518 19.518,17.715 19.518,15.500 C19.518,13.284 17.715,11.481 15.500,11.481 Z" class="cls-1"/>
</svg>
