<svg xmlns="http://www.w3.org/2000/svg" xmlns:xlink="http://www.w3.org/1999/xlink" preserveAspectRatio="xMidYMid" width="16" height="13" viewBox="0 0 16 13">
  <defs>
    <style>
      .cls-1 {
        fill: #000;
        fill-rule: evenodd;
      }
    </style>
  </defs>
  <path d="M15.559,0.240 C14.924,0.616 14.221,0.889 13.473,1.037 C12.874,0.397 12.022,-0.001 11.078,-0.001 C9.265,-0.001 7.795,1.469 7.795,3.282 C7.795,3.539 7.824,3.789 7.880,4.029 C5.152,3.892 2.733,2.585 1.115,0.599 C0.832,1.083 0.671,1.647 0.671,2.249 C0.671,3.389 1.251,4.393 2.131,4.981 C1.592,4.963 1.087,4.815 0.644,4.569 L0.644,4.610 C0.644,6.201 1.776,7.527 3.276,7.829 C3.002,7.904 2.712,7.945 2.412,7.945 C2.200,7.945 1.995,7.923 1.794,7.885 C2.212,9.189 3.423,10.138 4.859,10.165 C3.736,11.045 2.320,11.570 0.783,11.570 C0.518,11.570 0.257,11.554 -0.000,11.525 C1.453,12.455 3.177,12.999 5.032,12.999 C11.069,12.999 14.370,7.997 14.370,3.659 L14.360,3.234 C15.003,2.773 15.561,2.195 16.000,1.538 C15.411,1.798 14.779,1.975 14.115,2.055 C14.793,1.648 15.313,1.004 15.559,0.240 Z" class="cls-1"/>
</svg>
