<svg xmlns="http://www.w3.org/2000/svg" width="16" height="16" viewBox="0 0 16 16">
  <defs>
    <style>
      .cls-1 {
        fill: #13387d;
        fill-rule: evenodd;
      }
    </style>
  </defs>
  <path id="close.svg" class="cls-1" d="M988.3,132.255a0.353,0.353,0,0,1,0-.511l5.479-5.48a0.7,0.7,0,0,0,0-1.022l-1.022-1.023a0.792,0.792,0,0,0-.512-0.22,0.664,0.664,0,0,0-.511.22l-5.48,5.479a0.353,0.353,0,0,1-.511,0l-5.479-5.479a0.7,0.7,0,0,0-1.023,0l-1.023,1.023a0.706,0.706,0,0,0,0,1.022l5.479,5.48a0.353,0.353,0,0,1,0,.511l-5.479,5.48a0.706,0.706,0,0,0,0,1.022l1.023,1.023a0.7,0.7,0,0,0,1.023,0l5.479-5.479a0.353,0.353,0,0,1,.511,0l5.48,5.479a0.7,0.7,0,0,0,1.023,0l1.022-1.023a0.7,0.7,0,0,0,0-1.022Z" transform="translate(-978 -124)"/>
</svg>
